<svg width="1337" height="360" viewBox="0 0 1337 360" fill="none" xmlns="http://www.w3.org/2000/svg">
<path d="M150.071 409.984C129.079 410.284 108.248 406.273 88.8674 398.199C71.0442 390.618 54.9447 379.498 41.5445 365.51C28.3258 351.711 17.8859 335.495 10.7946 317.748C2.52411 296.624 -1.06552 273.956 0.273442 251.308C1.6124 228.661 7.84802 206.574 18.5499 186.572C30.8369 164.352 48.805 145.798 70.615 132.807C92.9427 119.267 119.428 112.497 150.071 112.497C179.594 112.497 205.339 119.086 227.304 132.263C248.369 144.371 265.28 162.571 275.813 184.472L216.535 203.3C210.109 191.327 200.413 181.43 188.576 174.762C176.533 167.93 162.903 164.393 149.058 164.508C133.507 164.325 118.231 168.613 105.045 176.862C91.844 185.142 81.1255 196.838 74.0234 210.712C66.2082 226.193 62.3152 243.358 62.6867 260.697C62.4379 277.873 66.425 294.846 74.2951 310.114C81.4745 324.234 92.1876 336.254 105.391 345.002C118.461 353.563 133.783 358.036 149.404 357.85C159.332 357.858 169.18 356.075 178.475 352.587C187.509 349.316 195.877 344.436 203.173 338.182C209.715 332.743 214.842 325.8 218.116 317.946L277.937 335.687C271.485 350.304 261.937 363.346 249.953 373.91C237.1 385.279 222.275 394.198 206.211 400.225C188.258 406.907 169.225 410.216 150.071 409.984Z" fill="#CFFF5E"/>
<path d="M863.866 404.376H802.959V243.945C802.959 217.309 798.62 197.782 789.942 185.362C781.265 172.941 768.438 166.731 751.462 166.731C739.216 166.838 727.168 169.826 716.291 175.453C704.5 181.373 693.894 189.404 684.997 199.149C675.839 209.034 669.026 220.858 665.065 233.74V404.4H604.158V116.87H659.533V175.009C666.966 162.149 676.842 150.868 688.603 141.801C700.858 132.341 714.618 125.016 729.307 120.132C744.833 114.951 761.103 112.355 777.47 112.447C794.825 112.447 809.133 115.561 820.396 121.787C831.383 127.745 840.563 136.553 846.972 147.286C853.682 158.788 858.188 171.441 860.26 184.596C862.715 199.375 863.921 214.335 863.866 229.317V404.376Z" fill="#CFFF5E"/>
<path d="M1068.64 390.514C1063.46 392.985 1057.01 395.876 1049.26 398.841C1040.68 402.041 1031.89 404.634 1022.95 406.599C1013.08 408.835 1002.99 409.97 992.868 409.984C980.92 410.104 969.067 407.853 957.993 403.363C947.435 399.095 938.443 391.686 932.232 382.138C925.794 372.403 922.567 359.81 922.55 344.359V163.989H884.341V116.87H922.55V21.595H983.458V116.87H1046.59V163.964H983.458V324.79C984.199 334.674 987.426 342.012 993.14 346.805C999.162 351.68 1006.74 354.223 1014.48 353.971C1022.8 353.999 1031.06 352.491 1038.83 349.523C1046.59 346.583 1052.29 344.186 1056.12 342.333L1068.64 390.514Z" fill="#CFFF5E"/>
<path d="M1253.64 167.275C1231.66 167.229 1210.03 172.763 1190.78 183.36C1173.1 193.005 1159.32 208.476 1151.76 227.143V404.4H1090.87V116.87H1147.36V179.481C1156.46 160.595 1169.94 144.159 1186.68 131.547C1201.54 120.073 1219.45 113.24 1238.18 111.904H1247.32C1249.45 111.877 1251.59 112.059 1253.69 112.447L1253.64 167.275Z" fill="#CFFF5E"/>
<path d="M1275.47 67.0336V0H1336.38V67.0336H1275.47ZM1275.47 404.376V114.671H1336.38V404.376H1275.47Z" fill="#CFFF5E"/>
<path d="M453.866 120.255H416.373V398.248H453.866V120.255Z" fill="#CFFF5E" stroke="#CFFF5E" stroke-width="4" stroke-miterlimit="10"/>
<path d="M574.075 240.51H296.189V278.018H574.075V240.51Z" fill="#CFFF5E" stroke="#CFFF5E" stroke-width="4" stroke-miterlimit="10"/>
<path d="M520.118 147.709L323.623 344.28L350.134 370.802L546.63 174.231L520.118 147.709Z" fill="#CFFF5E" stroke="#CFFF5E" stroke-width="4" stroke-miterlimit="10"/>
<path d="M350.117 147.71L323.605 174.231L520.101 370.802L546.612 344.28L350.117 147.71Z" fill="#CFFF5E" stroke="#CFFF5E" stroke-width="4" stroke-miterlimit="10"/>
</svg>
