<svg width="542" height="166" viewBox="0 0 542 166" fill="none" xmlns="http://www.w3.org/2000/svg">
<path d="M60.7605 165.93C52.2612 166.051 43.8274 164.428 35.9805 161.16C28.7642 158.092 22.2459 153.591 16.8205 147.93C11.4685 142.345 7.2416 135.783 4.37048 128.6C1.02196 120.05 -0.431404 110.876 0.110711 101.71C0.652826 92.5443 3.17749 83.6052 7.51046 75.51C12.4852 66.5172 19.7601 59.0076 28.5905 53.75C37.6305 48.27 48.3538 45.53 60.7605 45.53C72.7138 45.53 83.1371 48.1966 92.0304 53.53C100.559 58.4302 107.406 65.7962 111.67 74.66L87.6705 82.28C85.0687 77.4344 81.1427 73.4287 76.3505 70.73C71.4744 67.9649 65.9558 66.5336 60.3505 66.58C54.0542 66.506 47.8692 68.2414 42.5304 71.58C37.1856 74.9313 32.8459 79.6648 29.9705 85.28C26.8063 91.5454 25.2301 98.4925 25.3805 105.51C25.2797 112.462 26.894 119.331 30.0805 125.51C32.9872 131.225 37.3248 136.09 42.6705 139.63C47.9621 143.095 54.1658 144.905 60.4905 144.83C64.51 144.833 68.4971 144.112 72.2605 142.7C75.9183 141.376 79.3063 139.401 82.2605 136.87C84.909 134.669 86.9849 131.859 88.3105 128.68L112.53 135.86C109.918 141.776 106.053 147.055 101.2 151.33C95.9967 155.931 89.9944 159.541 83.4905 161.98C76.2215 164.685 68.5157 166.024 60.7605 165.93Z" fill="#CFFF5E"/>
<path d="M349.76 163.66H325.1V98.73C325.1 87.95 323.344 80.0467 319.83 75.02C316.317 69.9933 311.124 67.48 304.25 67.48C299.292 67.5232 294.414 68.7325 290.01 71.01C285.237 73.4059 280.942 76.6562 277.34 80.6C273.632 84.6008 270.874 89.3861 269.27 94.6V163.67H244.61V47.3H267.03V70.83C270.04 65.6255 274.038 61.0599 278.8 57.39C283.762 53.5615 289.333 50.5966 295.28 48.62C301.566 46.5231 308.154 45.4725 314.78 45.51C321.807 45.51 327.6 46.77 332.16 49.29C336.609 51.7012 340.326 55.2661 342.92 59.61C345.637 64.265 347.462 69.3859 348.3 74.71C349.294 80.6917 349.783 86.7464 349.76 92.81V163.66Z" fill="#CFFF5E"/>
<path d="M432.67 158.05C430.57 159.05 427.96 160.22 424.82 161.42C421.348 162.715 417.79 163.764 414.17 164.56C410.173 165.465 406.089 165.924 401.99 165.93C397.153 165.978 392.354 165.067 387.87 163.25C383.596 161.523 379.955 158.524 377.44 154.66C374.834 150.72 373.527 145.623 373.52 139.37V66.37H358.05V47.3H373.52V8.73999H398.18V47.3H423.74V66.36H398.18V131.45C398.48 135.45 399.787 138.42 402.1 140.36C404.539 142.333 407.606 143.362 410.74 143.26C414.11 143.271 417.452 142.661 420.6 141.46C423.74 140.27 426.05 139.3 427.6 138.55L432.67 158.05Z" fill="#CFFF5E"/>
<path d="M507.57 67.7C498.673 67.6813 489.916 69.9213 482.12 74.21C474.964 78.1134 469.381 84.375 466.32 91.93V163.67H441.67V47.3H464.54V72.64C468.224 64.9963 473.683 58.3446 480.46 53.24C486.477 48.5962 493.73 45.8307 501.31 45.29H505.01C505.876 45.2791 506.74 45.3528 507.59 45.51L507.57 67.7Z" fill="#CFFF5E"/>
<path d="M516.41 27.13V0H541.07V27.13H516.41ZM516.41 163.66V46.41H541.07V163.66H516.41Z" fill="#CFFF5E"/>
<path d="M183.76 48.67H168.58V161.18H183.76V48.67Z" fill="#CFFF5E" stroke="#CFFF5E" stroke-width="4" stroke-miterlimit="10"/>
<path d="M232.43 97.34H119.92V112.52H232.43V97.34Z" fill="#CFFF5E" stroke="#CFFF5E" stroke-width="4" stroke-miterlimit="10"/>
<path d="M210.584 59.7814L131.028 139.338L141.762 150.072L221.318 70.5153L210.584 59.7814Z" fill="#CFFF5E" stroke="#CFFF5E" stroke-width="4" stroke-miterlimit="10"/>
<path d="M141.755 59.7814L131.021 70.5153L210.577 150.072L221.311 139.338L141.755 59.7814Z" fill="#CFFF5E" stroke="#CFFF5E" stroke-width="4" stroke-miterlimit="10"/>
</svg>
