<svg width="589" height="166" viewBox="0 0 589 166" fill="none" xmlns="http://www.w3.org/2000/svg">
<path d="M60.7644 165.9C52.2651 166.021 43.8313 164.398 35.9844 161.13C28.7646 158.068 22.2426 153.57 16.8144 147.91C11.4657 142.329 7.24208 135.769 4.37436 128.59C1.44605 121.243 -0.0377096 113.399 0.00436579 105.49C-0.121251 95.0097 2.46586 84.6751 7.51438 75.49C12.4891 66.4972 19.7639 58.9877 28.5944 53.73C37.6277 48.2634 48.351 45.53 60.7644 45.53C72.7177 45.53 83.141 48.1967 92.0344 53.53C100.565 58.4492 107.405 65.8369 111.654 74.72L87.6544 82.34C85.0477 77.4981 81.1229 73.4936 76.3344 70.79C71.4575 68.028 65.9388 66.6 60.3344 66.65C54.0356 66.5808 47.8487 68.3158 42.5044 71.65C37.1632 75.0027 32.8271 79.7361 29.9543 85.35C26.7844 91.6138 25.2046 98.5614 25.3544 105.58C25.2559 112.533 26.8737 119.402 30.0644 125.58C32.9905 131.312 37.3567 136.185 42.7344 139.72C48.0255 143.186 54.2295 144.996 60.5544 144.92C64.5738 144.923 68.561 144.202 72.3244 142.79C75.983 141.468 79.3712 139.492 82.3244 136.96C84.9673 134.757 87.0422 131.952 88.3744 128.78L112.594 135.86C109.992 141.779 106.129 147.059 101.274 151.33C96.0741 155.936 90.0708 159.546 83.5644 161.98C76.2711 164.681 68.5411 166.01 60.7644 165.9Z" fill="#CFFF5E"/>
<path d="M349.764 163.66H325.094V98.7301C325.094 87.9501 323.341 80.0467 319.834 75.0201C316.328 69.9934 311.131 67.4967 304.244 67.5301C299.29 67.5745 294.415 68.7837 290.014 71.0601C285.241 73.4569 280.947 76.7071 277.344 80.6501C273.628 84.6449 270.869 89.4322 269.274 94.6501V163.72H244.594V47.3101H267.014V70.8301C270.024 65.6256 274.022 61.0599 278.784 57.3901C283.747 53.5633 289.318 50.5986 295.264 48.6201C301.55 46.5218 308.138 45.4711 314.764 45.5101C321.791 45.5101 327.584 46.7701 332.144 49.2901C336.589 51.7069 340.304 55.2704 342.904 59.6101C345.617 64.2707 347.441 69.394 348.284 74.7201C349.279 80.7016 349.768 86.7564 349.744 92.8201L349.764 163.66Z" fill="#CFFF5E"/>
<path d="M432.704 158.06C430.614 159.06 428.004 160.23 424.864 161.42C421.392 162.705 417.833 163.744 414.214 164.53C410.204 165.432 406.105 165.881 401.994 165.87C397.158 165.917 392.36 165.009 387.874 163.2C383.599 161.469 379.959 158.467 377.444 154.6C374.824 150.66 373.518 145.563 373.524 139.31V66.31H358.054V47.31H373.524V8.73999H398.184V47.31H423.744V66.36H398.184V131.45C398.484 135.45 399.791 138.42 402.104 140.36C404.537 142.335 407.602 143.365 410.734 143.26C414.106 143.271 417.451 142.664 420.604 141.47C423.744 140.27 426.054 139.3 427.604 138.55L432.704 158.06Z" fill="#CFFF5E"/>
<path d="M507.594 67.71C498.701 67.6891 489.948 69.9255 482.154 74.21C475.004 78.1189 469.42 84.3738 466.344 91.92V163.66H441.654V47.31H464.524V72.64C468.208 64.9993 473.667 58.3509 480.444 53.25C486.454 48.5872 493.708 45.804 501.294 45.25H504.994C505.868 45.2568 506.739 45.3506 507.594 45.53V67.71Z" fill="#CFFF5E"/>
<path d="M516.414 27.13V0H541.074V27.13H516.414ZM516.414 163.66V46.41H541.074V163.66H516.414Z" fill="#CFFF5E"/>
<path d="M588.464 137.94H562.744V163.66H588.464V137.94Z" fill="#CFFF5E"/>
<path d="M183.764 48.67H168.584V161.18H183.764V48.67Z" fill="#CFFF5E" stroke="#CFFF5E" stroke-width="4" stroke-miterlimit="10"/>
<path d="M232.424 97.3401H119.914V112.52H232.424V97.3401Z" fill="#CFFF5E" stroke="#CFFF5E" stroke-width="4" stroke-miterlimit="10"/>
<path d="M210.585 59.7833L131.028 139.34L141.762 150.074L221.319 70.5172L210.585 59.7833Z" fill="#CFFF5E" stroke="#CFFF5E" stroke-width="4" stroke-miterlimit="10"/>
<path d="M141.762 59.7762L131.028 70.5101L210.585 150.067L221.319 139.333L141.762 59.7762Z" fill="#CFFF5E" stroke="#CFFF5E" stroke-width="4" stroke-miterlimit="10"/>
</svg>
